
<svg xmlns="http://www.w3.org/2000/svg" viewBox="0 0 85.5 73" xmlns:xlink="http://www.w3.org/1999/xlink" id="body_1" width="100%" height="100%" fill="#ffffff">
  <g transform="matrix(0.1 0 0 0.1 0 0)">
  <g><path stroke="none" fill-rule="nonzero" style="opacity:1" fill="#2B2B2B" d="M 725.5,152.5 C 725.973,153.906 726.973,154.573 728.5,154.5C 737.225,164.335 741.225,176.002 740.5,189.5C 739.557,194.816 739.39,200.149 740,205.5C 747.549,218.815 752.716,232.981 755.5,248C 754.541,250.12 754.374,252.287 755,254.5C 762.899,265.414 769.565,277.081 775,289.5C 782.478,310.755 789.645,332.089 796.5,353.5C 796.833,354.5 797.5,355.167 798.5,355.5C 808.131,365.632 817.964,375.632 828,385.5C 828.265,387.163 827.765,388.663 826.5,390C 824.288,390.789 822.288,390.622 820.5,389.5C 819.833,388.167 818.833,387.167 817.5,386.5C 816.833,386.5 816.5,386.167 816.5,385.5C 814.229,383.734 812.063,381.734 810,379.5C 809.333,380.167 809.333,380.833 810,381.5C 811.736,383.063 813.236,384.73 814.5,386.5C 817.667,390.69 820.001,395.357 821.5,400.5C 821.202,404.226 819.202,405.393 815.5,404C 814.29,402.961 813.29,401.794 812.5,400.5C 811.25,398.068 809.75,395.734 808,393.5C 807.796,396.76 808.963,399.427 811.5,401.5C 814.143,404.34 814.976,407.673 814,411.5C 811.667,414.167 809.333,414.167 807,411.5C 803.971,407.438 801.471,403.105 799.5,398.5C 799.013,397.527 798.513,396.527 798,395.5C 797.22,397.387 797.387,399.054 798.5,400.5C 800.55,405.013 800.884,409.68 799.5,414.5C 796.371,417.049 793.871,416.382 792,412.5C 790.002,405.171 788.002,397.838 786,390.5C 784.401,387.622 782.567,384.956 780.5,382.5C 777.428,387.64 774.595,392.973 772,398.5C 770.653,400.466 769.153,400.799 767.5,399.5C 766.699,397.958 766.366,396.292 766.5,394.5C 768.138,384.811 769.971,375.144 772,365.5C 772.263,357.944 770.263,350.944 766,344.5C 759.831,335.5 754.164,326.166 749,316.5C 735.703,302.902 728.036,286.568 726,267.5C 716.065,256.631 709.565,243.964 706.5,229.5C 705.258,222.992 704.592,222.992 704.5,229.5C 704.243,237.224 703.41,244.891 702,252.5C 694.886,274.788 693.552,297.454 698,320.5C 704.356,341.237 709.69,362.237 714,383.5C 714.544,417.195 714.211,450.862 713,484.5C 714.464,490.558 716.13,496.558 718,502.5C 718.123,511.227 718.79,519.894 720,528.5C 725.402,538.302 729.402,548.635 732,559.5C 734.741,587.13 737.074,614.797 739,642.5C 739.356,657.894 739.522,673.227 739.5,688.5C 740.16,695.336 737.16,699.502 730.5,701C 725.303,701.867 720.303,701.2 715.5,699C 713.622,697.457 712.122,695.624 711,693.5C 706.925,684.208 704.925,674.542 705,664.5C 707.463,661.504 710.297,658.838 713.5,656.5C 714.631,654.926 714.798,653.259 714,651.5C 711.333,644.167 708.667,636.833 706,629.5C 699.636,616.771 693.302,604.104 687,591.5C 686.333,588.833 685.667,586.167 685,583.5C 684.667,571.5 684.333,559.5 684,547.5C 683.333,544.167 682.667,540.833 682,537.5C 670.672,516.862 663.338,494.862 660,471.5C 655.333,458.167 650.667,444.833 646,431.5C 645.055,427.886 644.388,424.219 644,420.5C 643.667,411.833 643.333,403.167 643,394.5C 642.151,391.479 641.317,388.479 640.5,385.5C 639.833,382.833 639.167,382.833 638.5,385.5C 636.713,396.383 635.547,407.383 635,418.5C 634.18,425.269 632.846,431.935 631,438.5C 626.607,449.012 622.607,459.678 619,470.5C 616.313,493.93 609.313,515.93 598,536.5C 595.076,551.345 593.743,566.345 594,581.5C 593.612,585.219 592.945,588.886 592,592.5C 583.567,607.031 575.9,622.031 569,637.5C 567.11,642.895 565.61,648.395 564.5,654C 567.341,657.839 570.508,661.339 574,664.5C 574.667,668.5 574.667,672.5 574,676.5C 570.877,683.323 568.211,690.323 566,697.5C 559.406,702.275 552.24,703.441 544.5,701C 541.485,698.137 539.651,694.637 539,690.5C 539.244,646.349 541.911,602.349 547,558.5C 550.728,547.382 554.728,536.382 559,525.5C 559.333,520.167 559.667,514.833 560,509.5C 565.073,492.512 567.073,475.179 566,457.5C 562.525,433.567 561.858,409.567 564,385.5C 567.703,365.723 573.037,346.39 580,327.5C 585.326,304.27 584.66,281.27 578,258.5C 577.178,248.098 575.844,237.765 574,227.5C 570.33,243.51 562.997,257.51 552,269.5C 549.636,287.282 542.303,302.616 530,315.5C 525.333,322.833 520.667,330.167 516,337.5C 512.667,344.833 509.333,352.167 506,359.5C 505.333,362.167 505.333,364.833 506,367.5C 508.177,376.543 510.511,385.543 513,394.5C 514.539,398.74 513.206,401.407 509,402.5C 507.395,401.899 506.062,400.899 505,399.5C 502.96,393.846 500.46,388.512 497.5,383.5C 495.768,385.283 494.268,387.283 493,389.5C 490.177,397.797 487.51,406.131 485,414.5C 482.872,417.458 480.206,418.124 477,416.5C 476.485,411.575 477.319,406.908 479.5,402.5C 480.933,400.086 481.433,397.419 481,394.5C 479.628,395.91 478.795,397.577 478.5,399.5C 476.013,404.473 473.513,409.473 471,414.5C 467.416,416.123 464.916,415.123 463.5,411.5C 464.627,407.25 466.294,403.25 468.5,399.5C 470.462,397.575 471.295,395.242 471,392.5C 469.606,394.388 468.44,396.388 467.5,398.5C 466.063,401.438 464.063,403.938 461.5,406C 458.447,407.072 456.447,406.072 455.5,403C 458.557,396.373 462.223,390.206 466.5,384.5C 468.088,383.365 468.421,382.031 467.5,380.5C 466.478,380.855 465.811,381.522 465.5,382.5C 462.215,386.149 458.215,388.816 453.5,390.5C 451.5,390.5 450.5,389.5 450.5,387.5C 450.852,384.783 452.185,382.783 454.5,381.5C 456.027,381.573 457.027,380.906 457.5,379.5C 465.131,371.368 472.964,363.368 481,355.5C 487.178,342.795 491.511,329.462 494,315.5C 500.773,293.477 510.773,273.144 524,254.5C 526.568,236.796 531.568,219.796 539,203.5C 534.197,162.592 552.364,142.092 593.5,142C 600.547,138.817 606.88,134.65 612.5,129.5C 613.906,129.027 614.573,128.027 614.5,126.5C 617.949,121.556 618.449,116.222 616,110.5C 611.168,102.518 609.002,93.8509 609.5,84.5C 609.568,75.0052 610.735,65.6719 613,56.5C 620.784,43.0243 632.284,37.8577 647.5,41C 659.317,44.4569 666.15,52.2902 668,64.5C 671.359,80.4362 669.693,95.7695 663,110.5C 662.104,115.949 662.437,121.282 664,126.5C 669.519,132.674 676.019,137.507 683.5,141C 696.762,140.852 709.429,143.519 721.5,149C 723.093,149.949 724.426,151.115 725.5,152.5 Z"/></g>
  <g><path stroke="none" fill-rule="nonzero" style="opacity:1" fill="#2B2B2B" d="M 391.5,382.5 C 391.427,384.027 392.094,385.027 393.5,385.5C 396.59,390.412 398.923,395.745 400.5,401.5C 399.852,404.887 398.185,405.887 395.5,404.5C 395.217,403.711 394.717,403.044 394,402.5C 393.503,404.81 393.337,407.143 393.5,409.5C 391.162,412.139 388.995,411.806 387,408.5C 385.758,409.872 384.258,410.872 382.5,411.5C 379.002,409.344 376.669,406.344 375.5,402.5C 370.057,387.901 369.391,388.235 373.5,403.5C 373.278,406.076 371.945,406.91 369.5,406C 364.392,398.363 360.225,390.197 357,381.5C 353.314,354.079 341.147,331.246 320.5,313C 303.275,302.077 294.109,286.243 293,265.5C 285.977,257.121 281.644,247.454 280,236.5C 274.46,244.622 271.626,253.622 271.5,263.5C 274.651,284.042 276.151,304.708 276,325.5C 287.944,356.218 294.11,388.051 294.5,421C 294.327,430.226 293.493,439.392 292,448.5C 288.628,460.155 286.128,471.989 284.5,484C 286.91,507.052 290.743,529.886 296,552.5C 299.024,569.817 299.024,587.15 296,604.5C 294.146,615.248 291.979,625.915 289.5,636.5C 292.734,647.046 295.901,657.713 299,668.5C 302.504,674.844 306.504,680.844 311,686.5C 312.098,690.505 311.265,694.005 308.5,697C 298.885,698.66 289.218,699.326 279.5,699C 275.942,697.108 273.442,694.275 272,690.5C 270.874,686.251 270.208,681.918 270,677.5C 268.076,673.983 266.409,670.316 265,666.5C 264.86,659.377 265.86,652.377 268,645.5C 268.667,637.833 268.667,630.167 268,622.5C 262.275,606.66 256.942,590.66 252,574.5C 249.607,556.235 247.94,537.902 247,519.5C 241.776,507.38 239.109,494.714 239,481.5C 236,471.833 233,462.167 230,452.5C 228.563,437.688 226.229,423.022 223,408.5C 220.893,398.06 221.06,387.727 223.5,377.5C 224.043,377.44 224.376,377.107 224.5,376.5C 220.893,375.511 217.226,375.177 213.5,375.5C 213.167,375.5 212.833,375.5 212.5,375.5C 211.698,374.115 211.031,374.282 210.5,376C 210.57,376.765 210.903,377.265 211.5,377.5C 213.836,387.053 214.003,396.719 212,406.5C 209.989,431.571 204.655,455.905 196,479.5C 196.154,492.47 193.487,504.804 188,516.5C 188.929,551.855 181.929,585.522 167,617.5C 165.259,633.012 166.426,648.346 170.5,663.5C 169.16,668.686 167.327,673.686 165,678.5C 165.159,686.401 162.659,693.234 157.5,699C 154.55,700.65 151.383,701.483 148,701.5C 141.012,700.711 134.179,699.211 127.5,697C 122.138,694.088 120.972,689.922 124,684.5C 128.671,679.168 132.337,673.168 135,666.5C 138.111,657.164 141.611,647.997 145.5,639C 143.103,621.684 139.937,604.518 136,587.5C 135.333,579.833 135.333,572.167 136,564.5C 139.465,549.64 142.132,534.64 144,519.5C 144.725,517.051 145.725,514.717 147,512.5C 148.92,499.555 149.587,486.555 149,473.5C 146.872,464.781 144.538,456.114 142,447.5C 138.952,417.563 140.618,387.896 147,358.5C 150.974,346.245 155.14,334.079 159.5,322C 158.927,318.192 158.594,314.359 158.5,310.5C 159.834,295.499 161.167,280.499 162.5,265.5C 163.146,255.342 160.813,246.009 155.5,237.5C 155.631,236.624 155.298,235.957 154.5,235.5C 153.614,236.325 153.281,237.325 153.5,238.5C 152.269,248.374 148.436,257.04 142,264.5C 140.227,277.492 135.893,289.492 129,300.5C 123.458,305.711 117.625,310.544 111.5,315C 100.897,323.92 93.064,334.754 88,347.5C 85.2774,350.557 82.944,353.89 81,357.5C 78.7414,372.942 74.0747,387.609 67,401.5C 65.9872,403.846 64.3206,405.513 62,406.5C 58.708,405.449 57.8746,403.449 59.5,400.5C 61.4421,397.496 62.2754,394.162 62,390.5C 60.7286,393.484 59.562,396.484 58.5,399.5C 56.8912,403.217 54.8912,406.717 52.5,410C 50.6131,410.78 48.9464,410.613 47.5,409.5C 47.6461,404.863 46.9794,404.53 45.5,408.5C 41.2652,412.86 38.9319,411.86 38.5,405.5C 39.525,405.103 39.6917,404.437 39,403.5C 38.0053,404.066 37.172,404.733 36.5,405.5C 34.8762,405.64 33.7096,404.973 33,403.5C 33.2568,394.322 36.7568,386.655 43.5,380.5C 44.4511,379.081 44.7845,377.415 44.5,375.5C 43.209,375.263 42.209,375.596 41.5,376.5C 41.0825,377.222 40.4158,377.722 39.5,378C 36.5,378.667 33.5,378.667 30.5,378C 28.339,376.236 28.1723,374.403 30,372.5C 34.4159,370.088 38.2492,366.922 41.5,363C 45.7482,359.709 50.4149,357.209 55.5,355.5C 57.5,355.5 58.5,354.5 58.5,352.5C 62.7347,344.365 67.2347,336.365 72,328.5C 79.4708,309.087 87.1375,289.754 95,270.5C 98.9378,264.394 103.771,259.06 109.5,254.5C 110.917,244.331 113.083,234.331 116,224.5C 117.958,219.41 120.792,214.91 124.5,211C 120.104,196.752 121.271,182.918 128,169.5C 132.415,163.429 138.248,159.262 145.5,157C 154.421,155.182 163.421,153.849 172.5,153C 178.157,150.507 183.49,147.507 188.5,144C 190.041,142.421 191.208,140.587 192,138.5C 193.949,131.921 195.449,125.255 196.5,118.5C 195.774,115.148 194.941,111.815 194,108.5C 188.947,103.052 187.114,96.7184 188.5,89.5C 189.5,89.5 190.5,89.5 191.5,89.5C 191.768,87.901 191.434,86.5676 190.5,85.5C 187.438,78.352 186.938,71.0186 189,63.5C 191.538,58.3449 193.371,53.3449 194.5,48.5C 195.833,48.5 197.167,48.5 198.5,48.5C 198.5,47.5 198.5,46.5 198.5,45.5C 198.833,45.5 199.167,45.5 199.5,45.5C 199.917,46.1239 200.584,46.4573 201.5,46.5C 202.713,46.2528 203.38,45.5862 203.5,44.5C 204.167,44.5 204.833,44.5 205.5,44.5C 205.917,45.1239 206.584,45.4573 207.5,45.5C 208.713,45.2528 209.38,44.5862 209.5,43.5C 221.774,43.5499 232.608,47.8833 242,56.5C 247.377,65.5275 248.877,75.1942 246.5,85.5C 246.69,88.3278 247.357,90.9945 248.5,93.5C 249.095,100.592 246.595,106.258 241,110.5C 237.605,121.687 238.938,132.354 245,142.5C 255.557,151.362 267.724,155.528 281.5,155C 299.667,157.167 309.833,167.333 312,185.5C 312.828,193.584 312.328,201.584 310.5,209.5C 319.501,222.676 324.001,237.343 324,253.5C 331.065,259.566 337.065,266.566 342,274.5C 349.8,295.567 357.8,316.567 366,337.5C 369,342.833 372,348.167 375,353.5C 385.492,358.996 395.159,365.663 404,373.5C 404.711,375.367 404.211,376.867 402.5,378C 398.09,378.317 393.757,377.817 389.5,376.5C 389.604,378.703 390.27,380.703 391.5,382.5 Z"/></g>
  <g><path stroke="none" fill-rule="nonzero" style="opacity:1" fill="#e5e5e1" d="M 633.5,43.5 C 645.071,42.1843 654.571,45.851 662,54.5C 663.562,56.9573 664.562,59.624 665,62.5C 670.344,80.7386 666.511,96.572 653.5,110C 632.56,117.614 619.06,110.78 613,89.5C 611.933,78.7079 612.599,68.0412 615,57.5C 619.314,50.349 625.48,45.6824 633.5,43.5 Z"/></g>
  <g><path stroke="none" fill-rule="nonzero" style="opacity:1" fill="#e5e5e1" d="M 241.5,84.5 C 241.99,77.7962 240.99,71.4629 238.5,65.5C 237.662,65.1583 237.328,64.4916 237.5,63.5C 235.807,58.2686 232.807,57.2686 228.5,60.5C 219.886,62.4489 211.22,62.7822 202.5,61.5C 199.246,61.7781 197.246,63.4448 196.5,66.5C 194.896,67.287 194.229,68.6203 194.5,70.5C 193.758,76.063 193.425,81.7296 193.5,87.5C 189.722,78.2262 189.556,68.8929 193,59.5C 194.141,57.3911 195.641,55.5578 197.5,54C 197.167,53.6667 196.833,53.3333 196.5,53C 212.979,43.4933 227.812,45.66 241,59.5C 246.125,69.2102 246.792,79.2102 243,89.5C 242.802,87.6183 242.302,85.9516 241.5,84.5 Z"/></g>
  <g><path stroke="none" fill-rule="nonzero" style="opacity:1" fill="#e4e4e4" d="M 228.5,60.5 C 232.112,59.9238 235.112,60.9238 237.5,63.5C 237.328,64.4916 237.662,65.1583 238.5,65.5C 239.415,71.9814 240.415,78.3147 241.5,84.5C 241.338,86.5273 241.505,88.5273 242,90.5C 242.741,91.6405 243.575,91.6405 244.5,90.5C 247.521,97.5498 246.021,103.55 240,108.5C 239.006,119.829 232.84,126.329 221.5,128C 205.681,130.03 197.181,123.197 196,107.5C 191.43,103.18 189.263,97.8465 189.5,91.5C 191.167,91.5 192.833,91.5 194.5,91.5C 195.114,84.5445 195.114,77.5445 194.5,70.5C 195.674,69.4863 196.34,68.153 196.5,66.5C 198.21,64.8004 200.21,63.4671 202.5,62.5C 204.932,63.3997 207.432,64.0663 210,64.5C 216.511,64.1417 222.677,62.8084 228.5,60.5 Z"/></g>
  <g><path stroke="none" fill-rule="nonzero" style="opacity:1" fill="#e6e6e6" d="M 664.5,95.5 C 665.097,95.7352 665.43,96.2352 665.5,97C 664.09,101.989 662.256,106.822 660,111.5C 659.667,114.5 659.333,117.5 659,120.5C 656.92,118.007 655.086,115.341 653.5,112.5C 658.401,107.605 662.068,101.939 664.5,95.5 Z"/></g>
  <g><path stroke="none" fill-rule="nonzero" style="opacity:1" fill="#e6e6e6" d="M 613.5,97.5 C 616.871,103.052 620.871,108.219 625.5,113C 624.205,115.758 622.539,118.258 620.5,120.5C 619.679,117.553 619.179,114.553 619,111.5C 616.87,106.913 615.037,102.247 613.5,97.5 Z"/></g>
  <g><path stroke="none" fill-rule="nonzero" style="opacity:1" fill="#e6e6e6" d="M 251.5,161.5 C 240.818,163.672 231.652,168.672 224,176.5C 222.725,178.717 221.725,181.051 221,183.5C 219.563,194.511 219.063,205.511 219.5,216.5C 217.833,216.5 216.167,216.5 214.5,216.5C 215.268,205.158 214.768,193.824 213,182.5C 212.529,180.754 211.862,179.087 211,177.5C 202.372,168.611 192.205,162.444 180.5,159C 191.156,158.032 201.156,160.198 210.5,165.5C 210.833,164.833 211.167,164.167 211.5,163.5C 207.392,153.616 203.559,143.616 200,133.5C 198.929,129.819 198.262,126.152 198,122.5C 203.41,127.651 209.91,129.984 217.5,129.5C 224.844,130.128 231.011,127.795 236,122.5C 236.33,125.866 235.997,129.199 235,132.5C 231.659,143.511 227.492,154.178 222.5,164.5C 222.833,164.833 223.167,165.167 223.5,165.5C 232.806,160.741 242.639,158.075 253,157.5C 253.3,159.066 252.8,160.399 251.5,161.5 Z"/></g>
  <g><path stroke="none" fill-rule="nonzero" style="opacity:1" fill="#e7e7e7" d="M 649.5,112.5 C 651.017,112.511 652.184,113.177 653,114.5C 658.493,124.952 665.993,133.785 675.5,141C 663.612,138.943 651.946,135.776 640.5,131.5C 639.505,126.208 639.172,120.875 639.5,115.5C 643.116,115.101 646.45,114.101 649.5,112.5 Z"/></g>
  <g><path stroke="none" fill-rule="nonzero" style="opacity:1" fill="#e7e7e7" d="M 626.5,113.5 C 630.326,115 634.326,115.666 638.5,115.5C 638.828,120.875 638.495,126.208 637.5,131.5C 625.761,135.934 613.761,139.101 601.5,141C 612.143,133.861 620.476,124.694 626.5,113.5 Z"/></g>
  <g><path stroke="none" fill-rule="nonzero" style="opacity:1" fill="#e7e7e7" d="M 196.5,129.5 C 200.022,140.376 204.355,151.043 209.5,161.5C 209.167,161.833 208.833,162.167 208.5,162.5C 197.358,157.652 185.691,155.152 173.5,155C 180.443,152.386 186.609,148.553 192,143.5C 194.118,139.026 195.618,134.36 196.5,129.5 Z"/></g>
  <g><path stroke="none" fill-rule="nonzero" style="opacity:1" fill="#e7e7e7" d="M 236.5,129.5 C 237.586,129.62 238.253,130.287 238.5,131.5C 239.022,138.379 242.022,143.879 247.5,148C 251.5,150.333 255.5,152.667 259.5,155C 247.694,155.466 236.361,157.966 225.5,162.5C 225.167,162.333 224.833,162.167 224.5,162C 230.186,151.774 234.186,140.941 236.5,129.5 Z"/></g>
  <g><path stroke="none" fill-rule="nonzero" style="opacity:1" fill="#e8e8e8" d="M 638.5,132.5 C 652.796,136.99 667.129,141.323 681.5,145.5C 672.11,156.337 666.944,169.003 666,183.5C 665.747,190.876 665.081,198.209 664,205.5C 655.72,219.732 647.72,234.065 640,248.5C 638.739,248.241 637.739,247.574 637,246.5C 629.573,231.976 621.906,217.643 614,203.5C 613.345,190.362 611.679,177.362 609,164.5C 606.58,157.159 602.747,150.659 597.5,145C 611.419,141.302 625.086,137.135 638.5,132.5 Z"/></g>
  <g><path stroke="none" fill-rule="nonzero" style="opacity:1" fill="#e9e9e9" d="M 589.5,144.5 C 595.598,143.696 598.431,146.362 598,152.5C 591.908,160.581 584.075,166.414 574.5,170C 570.15,174.202 567.817,179.369 567.5,185.5C 558.031,188.307 549.698,192.974 542.5,199.5C 537.707,163.629 553.374,145.296 589.5,144.5 Z"/></g>
  <g><path stroke="none" fill-rule="nonzero" style="opacity:1" fill="#e9e9e9" d="M 683.5,144.5 C 698.371,143.467 712.037,146.967 724.5,155C 731.972,161.444 736.139,169.61 737,179.5C 737.667,186.5 737.667,193.5 737,200.5C 730.27,191.861 721.437,186.861 710.5,185.5C 710.887,180.92 710.053,176.586 708,172.5C 702.415,168.623 696.582,165.123 690.5,162C 687.333,158.833 684.167,155.667 681,152.5C 680.333,151.167 680.333,149.833 681,148.5C 682.095,147.307 682.928,145.973 683.5,144.5 Z"/></g>
  <g><path stroke="none" fill-rule="nonzero" style="opacity:1" fill="#e9e9e9" d="M 141.5,203.5 C 136.888,206.143 132.221,208.81 127.5,211.5C 123.37,199.146 123.537,186.812 128,174.5C 130.584,167.618 135.417,163.118 142.5,161C 153.246,157.632 164.246,156.632 175.5,158C 177.996,159.08 180.33,160.414 182.5,162C 177.443,163.945 172.943,166.779 169,170.5C 161.333,181.167 153.667,191.833 146,202.5C 144.251,201.447 142.751,201.78 141.5,203.5 Z"/></g>
  <g><path stroke="none" fill-rule="nonzero" style="opacity:1" fill="#e9e9e9" d="M 251.5,161.5 C 253.78,160.36 256.114,159.193 258.5,158C 299.854,152.852 316.52,170.685 308.5,211.5C 302.771,209.13 297.437,205.963 292.5,202C 290.793,201.805 289.126,201.805 287.5,202C 279.899,190.133 271.566,178.8 262.5,168C 258.77,165.807 255.103,163.64 251.5,161.5 Z"/></g>
  <g><path stroke="none" fill-rule="nonzero" style="opacity:1" fill="#ededed" d="M 599.5,152.5 C 604.091,156.001 606.924,160.667 608,166.5C 610.392,177.429 611.225,188.429 610.5,199.5C 603.728,202.052 597.061,204.885 590.5,208C 583.991,209.759 578.491,208.259 574,203.5C 570.395,194.363 569.728,185.03 572,175.5C 572.465,174.069 573.299,172.903 574.5,172C 584.793,167.872 593.126,161.372 599.5,152.5 Z"/></g>
  <g><path stroke="none" fill-rule="nonzero" style="opacity:1" fill="#ededed" d="M 677.5,152.5 C 682.239,155.731 686.572,159.564 690.5,164C 694.674,166.588 699.007,168.921 703.5,171C 707.215,173.929 709.215,177.762 709.5,182.5C 708.747,190.099 706.913,197.432 704,204.5C 699.483,208.242 694.316,209.409 688.5,208C 681.939,204.885 675.272,202.052 668.5,199.5C 666.255,182.728 669.255,167.061 677.5,152.5 Z"/></g>
  <g><path stroke="none" fill-rule="nonzero" style="opacity:1" fill="#eeeeee" d="M 180.5,164.5 C 183.85,164.335 187.183,164.502 190.5,165C 197.444,168.053 203.611,172.219 209,177.5C 210.275,179.717 211.275,182.051 212,184.5C 212.537,192.7 213.37,200.867 214.5,209C 214.227,211.151 213.561,213.151 212.5,215C 194.271,223.278 176.605,222.278 159.5,212C 156,209.167 152.5,206.333 149,203.5C 155.783,190.673 164.283,178.839 174.5,168C 176.727,167.059 178.727,165.892 180.5,164.5 Z"/></g>
  <g><path stroke="none" fill-rule="nonzero" style="opacity:1" fill="#eeeeee" d="M 243.5,164.5 C 249.275,163.775 254.608,164.941 259.5,168C 262.333,170.833 265.167,173.667 268,176.5C 274.489,185.181 280.156,194.181 285,203.5C 271.175,217.331 254.675,222.498 235.5,219C 230.073,218.607 225.24,216.773 221,213.5C 220.529,202.76 221.196,192.094 223,181.5C 228.442,174.046 235.275,168.38 243.5,164.5 Z"/></g>
  <g><path   stroke="none" fill-rule="nonzero" style="opacity:1" fill="#eaeaea" d="M 565.5,187.5 C 566.5,187.5 567.5,187.5 568.5,187.5C 570.26,197.041 572.26,206.541 574.5,216C 571.48,234.366 564.146,250.7 552.5,265C 548.848,265.499 545.182,265.665 541.5,265.5C 542.554,256.617 544.554,247.95 547.5,239.5C 547.373,235.609 545.54,232.942 542,231.5C 540.739,231.759 539.739,232.426 539,233.5C 536.646,240.974 535.313,248.64 535,256.5C 534.513,259.798 533.347,262.798 531.5,265.5C 530.201,264.91 529.368,263.91 529,262.5C 525.984,254.534 525.984,246.534 529,238.5C 533.03,225.403 538.03,212.737 544,200.5C 545.833,198.667 547.667,196.833 549.5,195C 554.978,192.575 560.312,190.075 565.5,187.5 Z"/></g>
  <g><path   stroke="none" fill-rule="nonzero" style="opacity:1" fill="#eaeaea" d="M 710.5,187.5 C 717.166,189.112 723.499,191.612 729.5,195C 741.925,211.42 749.592,229.92 752.5,250.5C 751.594,255.804 749.928,260.804 747.5,265.5C 745.578,263.997 744.412,261.997 744,259.5C 743.639,252.801 742.972,246.135 742,239.5C 738.691,229.068 735.191,228.901 731.5,239C 732.796,244.555 734.296,250.055 736,255.5C 736.789,259.091 736.622,262.591 735.5,266C 732.697,266.755 730.03,266.422 727.5,265C 707.622,242.218 701.955,216.385 710.5,187.5 Z"/></g>
  <g><path stroke="none" fill-rule="nonzero" style="opacity:1" fill="#ebebeb" d="M 608.5,201.5 C 609.822,201.33 610.989,201.663 612,202.5C 615.05,211.211 619.383,219.211 625,226.5C 628.706,234.078 632.539,241.578 636.5,249C 630.388,252.779 624.555,256.945 619,261.5C 617.275,264.674 615.942,268.007 615,271.5C 614.951,279.959 613.951,288.292 612,296.5C 610.118,301.044 607.451,305.044 604,308.5C 603.103,301.765 601.77,295.099 600,288.5C 592.88,279.374 586.547,269.707 581,259.5C 578.524,241.843 576.524,224.176 575,206.5C 582.016,212.462 589.516,212.962 597.5,208C 601.096,205.539 604.763,203.373 608.5,201.5 Z"/></g>
  <g><path stroke="none" fill-rule="nonzero" style="opacity:1" fill="#ebebeb" d="M 666.5,201.5 C 668.927,201.523 671.26,202.023 673.5,203C 678.38,205.607 683.38,207.94 688.5,210C 694.316,211.409 699.483,210.242 704,206.5C 702.849,224.233 700.849,241.9 698,259.5C 696.254,263.327 694.254,266.993 692,270.5C 687.279,276.221 682.946,282.221 679,288.5C 676.808,294.985 675.474,301.652 675,308.5C 666.561,297.68 662.895,285.347 664,271.5C 662.741,265.146 659.574,259.979 654.5,256C 650.296,253.736 646.296,251.236 642.5,248.5C 649.032,235.139 656.198,222.139 664,209.5C 664.941,206.846 665.774,204.179 666.5,201.5 Z"/></g>
  <g><path stroke="none" fill-rule="nonzero" style="opacity:1" fill="#f0f0f0" d="M 141.5,203.5 C 149.128,204.134 153.462,208.134 154.5,215.5C 154.456,231.01 150.956,245.676 144,259.5C 142.5,261 141,262.5 139.5,264C 131.833,267.167 124.167,270.333 116.5,273.5C 115.808,272.975 115.308,272.308 115,271.5C 111.681,256.691 112.348,242.025 117,227.5C 119.161,222.508 121.828,217.841 125,213.5C 125.333,213.833 125.667,214.167 126,214.5C 131.849,211.671 137.016,208.004 141.5,203.5 Z"/></g>
  <g><path stroke="none" fill-rule="nonzero" style="opacity:1" fill="#f0f0f0" d="M 289.5,203.5 C 295.815,206.748 301.982,210.415 308,214.5C 308.333,214.167 308.667,213.833 309,213.5C 317.626,224.981 321.792,237.981 321.5,252.5C 321.399,259.647 320.399,266.647 318.5,273.5C 310.833,270.333 303.167,267.167 295.5,264C 292.238,261.408 289.738,258.241 288,254.5C 285.293,246.712 282.793,238.878 280.5,231C 281.276,225.157 280.943,218.99 279.5,212.5C 281.61,208.116 284.943,205.116 289.5,203.5 Z"/></g>
  <g><path     stroke="none" fill-rule="nonzero" style="opacity:1" fill="#ececec" d="M 156.5,212.5 C 164.534,217.518 173.2,220.852 182.5,222.5C 180.598,242.455 180.098,262.455 181,282.5C 184.84,307.07 189.506,331.404 195,355.5C 191.425,351.347 188.091,347.014 185,342.5C 177.778,335.81 170.278,329.477 162.5,323.5C 161.149,319.45 160.483,315.283 160.5,311C 161.144,299.776 162.31,288.61 164,277.5C 164.667,269.167 164.667,260.833 164,252.5C 161.246,244.112 158.079,235.945 154.5,228C 155.138,222.808 155.805,217.641 156.5,212.5 Z"/></g>
  <g><path     stroke="none" fill-rule="nonzero" style="opacity:1" fill="#ececec" d="M 268.5,327.5 C 259.217,332.45 251.884,339.45 246.5,348.5C 244.413,349.585 243.08,351.251 242.5,353.5C 239.529,355.443 237.529,358.109 236.5,361.5C 234.738,362.262 233.738,363.596 233.5,365.5C 232.542,365.953 231.708,366.619 231,367.5C 234.361,358.075 237.361,348.409 240,338.5C 243.089,320.118 246.423,301.784 250,283.5C 250.967,263.115 250.467,242.781 248.5,222.5C 258.938,221.575 268.605,218.242 277.5,212.5C 281.421,224.022 279.921,234.689 273,244.5C 270.961,251.511 269.794,258.678 269.5,266C 271.327,280.458 272.66,294.958 273.5,309.5C 273.333,313.833 273.167,318.167 273,322.5C 271.293,324.037 269.793,325.704 268.5,327.5 Z"/></g>
  <g><path   stroke="none" fill-rule="nonzero" style="opacity:1" fill="#ececec" d="M 693.5,269.5 C 694.139,270.097 694.472,270.93 694.5,272C 693.562,276.461 692.895,280.961 692.5,285.5C 693.134,295.18 693.8,304.847 694.5,314.5C 688.546,313.243 682.546,312.243 676.5,311.5C 676.98,304.059 678.146,296.726 680,289.5C 684.747,282.934 689.247,276.268 693.5,269.5 Z"/></g>
  <g><path   stroke="none" fill-rule="nonzero" style="opacity:1" fill="#ececec" d="M 584.5,271.5 C 589.853,277.364 594.687,283.697 599,290.5C 600.283,297.443 601.116,304.443 601.5,311.5C 596.107,312.182 590.773,313.182 585.5,314.5C 587.087,300.106 586.754,285.773 584.5,271.5 Z"/></g>
  <g><path stroke="none" fill-rule="nonzero" style="opacity:1" fill="#f3f3f3" d="M 210.5,217.5 C 211.93,217.421 213.264,217.754 214.5,218.5C 215.666,228.483 215.832,238.483 215,248.5C 208.043,249.82 201.043,251.153 194,252.5C 189.933,252.145 186.266,250.812 183,248.5C 182.098,240.061 182.598,231.728 184.5,223.5C 193.473,222.307 202.139,220.307 210.5,217.5 Z"/></g>
  <g><path stroke="none" fill-rule="nonzero" style="opacity:1" fill="#f3f3f3" d="M 218.5,217.5 C 228,219.555 237.5,221.555 247,223.5C 247.91,230.831 248.743,238.164 249.5,245.5C 249.363,247.107 248.696,248.441 247.5,249.5C 244.141,251.009 240.641,252.009 237,252.5C 230.342,251.37 223.842,249.87 217.5,248C 217.265,237.864 217.598,227.697 218.5,217.5 Z"/></g>
  <g><path stroke="none" fill-rule="nonzero" style="opacity:1" fill="#f3f3f3" d="M 182.5,251.5 C 186.098,252.698 189.764,253.698 193.5,254.5C 200.71,252.53 208.043,251.53 215.5,251.5C 215.666,260.173 215.5,268.84 215,277.5C 214.25,278.126 213.416,278.626 212.5,279C 204.864,280.236 197.197,280.57 189.5,280C 186.692,279.402 184.192,278.235 182,276.5C 181.781,268.168 181.948,259.834 182.5,251.5 Z"/></g>
  <g><path stroke="none" fill-rule="nonzero" style="opacity:1" fill="#f3f3f3" d="M 217.5,251.5 C 224.233,251.979 230.9,252.979 237.5,254.5C 241.512,253.495 245.512,252.495 249.5,251.5C 249.831,260.192 249.498,268.859 248.5,277.5C 244.118,279.762 239.451,280.762 234.5,280.5C 228.895,280.304 223.395,279.637 218,278.5C 217.5,269.506 217.334,260.506 217.5,251.5 Z"/></g>
  <g><path stroke="none" fill-rule="nonzero" style="opacity:1" fill="#f3f3f3" d="M 182.5,279.5 C 193.309,283.131 204.142,283.131 215,279.5C 215.667,287.5 215.667,295.5 215,303.5C 213.261,304.894 211.261,305.561 209,305.5C 201.603,304.526 194.436,302.692 187.5,300C 184.128,293.653 182.461,286.819 182.5,279.5 Z"/></g>
  <g><path stroke="none" fill-rule="nonzero" style="opacity:1" fill="#f3f3f3" d="M 247.5,279.5 C 248.807,286.337 247.807,293.004 244.5,299.5C 236.173,303.42 227.506,305.087 218.5,304.5C 217.335,296.521 217.168,288.521 218,280.5C 223.434,281.292 228.934,281.959 234.5,282.5C 239.116,282.138 243.449,281.138 247.5,279.5 Z"/></g>
  <g><path     stroke="none" fill-rule="nonzero" style="opacity:1" fill="#f2f2f2"  d="M 540.5,233.5 C 544.158,233.935 545.825,236.101 545.5,240C 544.411,245.935 542.911,251.768 541,257.5C 540.502,260.817 540.335,264.15 540.5,267.5C 543.5,267.5 546.5,267.5 549.5,267.5C 548.72,279.341 545.22,290.341 539,300.5C 524.547,318.144 512.714,337.477 503.5,358.5C 497.773,359.376 492.106,358.876 486.5,357C 485.426,356.261 484.759,355.261 484.5,354C 487.391,347.994 489.891,341.827 492,335.5C 497.654,307.01 508.82,281.01 525.5,257.5C 526.544,260.8 527.877,263.967 529.5,267C 530.416,267.374 531.25,267.874 532,268.5C 533.252,266.999 534.252,265.332 535,263.5C 536.504,253.4 538.338,243.4 540.5,233.5 Z"/></g>
  <g><path     stroke="none" fill-rule="nonzero" style="opacity:1" fill="#f2f2f2"  d="M 734.5,233.5 C 737.595,233.626 739.428,235.293 740,238.5C 741.055,246.157 742.055,253.823 743,261.5C 743.471,263.246 744.138,264.913 745,266.5C 746.333,267.833 747.667,267.833 749,266.5C 750.725,263.326 752.058,259.993 753,256.5C 763.419,271.335 771.752,287.335 778,304.5C 782.245,320.819 787.412,336.819 793.5,352.5C 793.182,353.647 792.516,354.481 791.5,355C 786.051,357.279 780.384,358.446 774.5,358.5C 772.512,351.519 769.679,344.852 766,338.5C 758.156,324.807 749.323,311.807 739.5,299.5C 733.755,289.931 730.421,279.598 729.5,268.5C 732.455,267.841 735.455,267.508 738.5,267.5C 738.665,264.15 738.498,260.817 738,257.5C 736.392,251.513 734.892,245.513 733.5,239.5C 733.672,237.452 734.005,235.452 734.5,233.5 Z"/></g>
  <g><path     stroke="none" fill-rule="nonzero" style="opacity:1" fill="#f2f2f2" d="M 110.5,255.5 C 112.206,261.246 113.373,267.246 114,273.5C 114.388,274.428 115.055,275.095 116,275.5C 123.651,271.842 131.484,269.008 139.5,267C 137.937,285.818 129.271,300.151 113.5,310C 100.956,320.862 91.1223,333.696 84,348.5C 79.6089,344.388 74.7755,340.888 69.5,338C 77.8375,320.325 85.0042,302.159 91,283.5C 93.4121,278.341 96.0788,273.341 99,268.5C 102.841,264.135 106.674,259.802 110.5,255.5 Z"/></g>
  <g><path     stroke="none" fill-rule="nonzero" style="opacity:1" fill="#f2f2f2" d="M 322.5,256.5 C 333.38,264.214 340.88,274.548 345,287.5C 350.872,304.282 357.038,320.949 363.5,337.5C 359.315,341.515 354.815,345.182 350,348.5C 346.316,338.816 340.982,330.15 334,322.5C 325.63,314.462 316.964,306.795 308,299.5C 300.439,289.644 296.605,278.644 296.5,266.5C 304.058,269.96 311.725,272.793 319.5,275C 321.435,269.029 322.435,262.863 322.5,256.5 Z"/></g>
  <g><path       stroke="none" fill-rule="nonzero" style="opacity:1" fill="#f4f4f4" d="M 637.5,250.5 C 643.619,251.891 649.285,254.391 654.5,258C 658.145,261.453 660.645,265.62 662,270.5C 661.315,285.617 665.482,299.117 674.5,311C 658.766,314.067 646.933,322.567 639,336.5C 631.613,322.545 620.113,314.045 604.5,311C 614.357,300.085 618.191,287.252 616,272.5C 617.077,267.177 619.577,262.677 623.5,259C 628.397,256.392 633.063,253.559 637.5,250.5 Z"/></g>
  <g><path       stroke="none" fill-rule="nonzero" style="opacity:1" fill="#f5f5f5" d="M 243.5,301.5 C 242.957,319.411 239.79,337.078 234,354.5C 231.438,359.624 229.438,364.957 228,370.5C 224.912,373.097 221.412,373.931 217.5,373C 217.645,351.162 217.812,329.329 218,307.5C 222.015,307.647 226.182,307.147 230.5,306C 235.112,304.941 239.446,303.441 243.5,301.5 Z"/></g>
  <g><path       stroke="none" fill-rule="nonzero" style="opacity:1" fill="#f5f5f5" d="M 186.5,302.5 C 193.825,304.164 201.159,305.831 208.5,307.5C 210.818,307.003 213.152,306.67 215.5,306.5C 215.285,328.551 215.285,350.551 215.5,372.5C 211.166,373.105 207.333,371.772 204,368.5C 198.431,358.465 194.431,347.798 192,336.5C 189.653,325.239 187.82,313.906 186.5,302.5 Z"/></g>
  <g><path       stroke="none" fill-rule="nonzero" style="opacity:1" fill="#f6f6f6" d="M 674.5,312.5 C 681.648,312.996 688.482,314.662 695,317.5C 698.53,332.621 702.53,347.621 707,362.5C 707.667,364.167 707.667,365.833 707,367.5C 703.667,362.167 700.333,356.833 697,351.5C 695.638,342.055 691.971,333.721 686,326.5C 682.3,322.465 678.3,318.798 674,315.5C 673.53,314.423 673.697,313.423 674.5,312.5 Z"/></g>
  <g><path       stroke="none" fill-rule="nonzero" style="opacity:1" fill="#f6f6f6" d="M 594.5,313.5 C 598.226,313.177 601.893,313.511 605.5,314.5C 599.177,319.99 593.344,325.99 588,332.5C 585.056,338.935 582.723,345.601 581,352.5C 578.393,358.059 574.893,362.559 570.5,366C 575.637,349.555 580.637,333.055 585.5,316.5C 588.662,315.635 591.662,314.635 594.5,313.5 Z"/></g>
  <g><path stroke="none" fill-rule="nonzero" style="opacity:1" fill="#f7f7f7" d="M 607.5,314.5 C 621.703,317.354 631.87,325.354 638,338.5C 638.667,352.5 638.667,366.5 638,380.5C 635.45,386.981 633.617,393.647 632.5,400.5C 625.435,403.339 618.102,404.173 610.5,403C 585.628,403.136 574.462,390.97 577,366.5C 581.177,357.141 584.511,347.474 587,337.5C 588.944,333.89 591.277,330.557 594,327.5C 599.003,323.664 603.503,319.33 607.5,314.5 Z"/></g>
  <g><path stroke="none" fill-rule="nonzero" style="opacity:1" fill="#f7f7f7" d="M 667.5,314.5 C 668.873,314.343 670.207,314.51 671.5,315C 678.739,321.569 685.239,328.735 691,336.5C 693.284,346.728 696.951,356.394 702,365.5C 705.024,390.483 693.858,402.983 668.5,403C 663.833,403.667 659.167,403.667 654.5,403C 646.962,402.794 643.795,398.961 645,391.5C 643.667,388.167 642.333,384.833 641,381.5C 640.815,368.455 640.315,355.455 639.5,342.5C 643.885,328.115 653.218,318.782 667.5,314.5 Z"/></g>
  <g><path   stroke="none" fill-rule="nonzero" style="opacity:1" fill="#f8f8f8" d="M 150.5,382.5 C 148.956,382.703 147.622,383.37 146.5,384.5C 145.656,380.52 145.823,376.52 147,372.5C 150.204,355.891 155.204,339.891 162,324.5C 166.918,328.772 169.085,334.272 168.5,341C 168.239,350.64 166.073,359.806 162,368.5C 157.954,373.04 154.121,377.707 150.5,382.5 Z"/></g>
  <g><path   stroke="none" fill-rule="nonzero" style="opacity:1" fill="#f8f8f8" d="M 268.5,327.5 C 270.044,327.297 271.378,326.63 272.5,325.5C 280.367,342.781 285.701,360.947 288.5,380C 288.167,381.167 287.833,382.333 287.5,383.5C 268.008,369.357 261.674,350.691 268.5,327.5 Z"/></g>
  <g><path   stroke="none" fill-rule="nonzero" style="opacity:1" fill="#f8f8f8" d="M 169.5,331.5 C 173.458,334.285 177.291,337.285 181,340.5C 191.437,352.936 201.104,365.936 210,379.5C 210.767,389.869 210.433,400.203 209,410.5C 206.636,422.771 204.636,435.105 203,447.5C 201.107,456.739 198.441,465.739 195,474.5C 189.807,433.036 180.974,392.369 168.5,352.5C 169.428,345.538 169.761,338.538 169.5,331.5 Z"/></g>
  <g><path   stroke="none" fill-rule="nonzero" style="opacity:1" fill="#f8f8f8" d="M 264.5,360.5 C 261.584,366.458 259.417,372.791 258,379.5C 249.992,410.541 243.659,441.874 239,473.5C 235.723,464.001 233.056,454.335 231,444.5C 228.5,426.667 226,408.834 223.5,391C 223.65,384.939 224.817,379.105 227,373.5C 229.782,371.229 231.949,368.563 233.5,365.5C 235.262,364.738 236.262,363.404 236.5,361.5C 238.984,359.2 240.984,356.533 242.5,353.5C 244.587,352.415 245.92,350.749 246.5,348.5C 252.496,342.671 258.663,337.004 265,331.5C 264.74,341.177 264.573,350.843 264.5,360.5 Z"/></g>
  <g><path   stroke="none" fill-rule="nonzero" style="opacity:1" fill="#f8f8f8" d="M 167.5,357.5 C 175.739,379.614 181.739,402.448 185.5,426C 182.294,443.402 179.794,460.902 178,478.5C 164.084,457.98 155.751,435.314 153,410.5C 152.176,400.788 152.509,391.121 154,381.5C 160.837,374.827 165.337,366.827 167.5,357.5 Z"/></g>
  <g><path   stroke="none" fill-rule="nonzero" style="opacity:1" fill="#f8f8f8" d="M 258.5,477.5 C 256.955,476.77 256.122,475.437 256,473.5C 254.051,457.138 251.884,440.804 249.5,424.5C 253.738,402.974 258.738,381.64 264.5,360.5C 265.222,360.082 265.722,359.416 266,358.5C 269.414,366.327 274.081,373.327 280,379.5C 284.261,405.81 280.928,431.143 270,455.5C 266.396,463.045 262.563,470.378 258.5,477.5 Z"/></g>
  <g><path   stroke="none" fill-rule="nonzero" style="opacity:1" fill="#f8f8f8" d="M 150.5,382.5 C 151.586,382.62 152.253,383.287 152.5,384.5C 151.547,389.626 150.88,394.793 150.5,400C 151.634,409.837 152.8,419.67 154,429.5C 157.663,441.824 162.163,453.824 167.5,465.5C 165.527,480.956 161.36,481.956 155,468.5C 150.606,457.318 146.606,445.984 143,434.5C 142.308,418.774 142.975,403.107 145,387.5C 147.191,386.167 149.024,384.5 150.5,382.5 Z"/></g>
  <g><path   stroke="none" fill-rule="nonzero" style="opacity:1" fill="#f8f8f8" d="M 282.5,462.5 C 280.597,465.53 279.263,468.863 278.5,472.5C 277.101,474.942 275.434,477.276 273.5,479.5C 269.348,476.446 267.348,472.279 267.5,467C 272.397,453.642 276.897,440.142 281,426.5C 282.23,417.536 283.063,408.536 283.5,399.5C 283.551,393.867 282.884,388.367 281.5,383C 284.944,383.653 287.777,385.486 290,388.5C 292.144,404.49 292.477,420.49 291,436.5C 288.06,445.154 285.226,453.821 282.5,462.5 Z"/></g>
  <g><path   stroke="none" fill-rule="nonzero" style="opacity:1" fill="#f8f8f8" d="M 185.5,431.5 C 187.045,432.23 187.878,433.563 188,435.5C 191.817,452.687 193.317,470.02 192.5,487.5C 187.149,486.481 182.815,483.814 179.5,479.5C 180.843,463.435 182.843,447.435 185.5,431.5 Z"/></g>
  <g><path   stroke="none" fill-rule="nonzero" style="opacity:1" fill="#f8f8f8" d="M 253.5,482.5 C 251.596,482.738 250.262,483.738 249.5,485.5C 247.072,486.212 244.739,487.212 242.5,488.5C 240.612,469.155 242.445,450.155 248,431.5C 252.686,448.26 254.519,465.26 253.5,482.5 Z"/></g>
  <g><path   stroke="none" fill-rule="nonzero" style="opacity:1" fill="#f9f9f9" d="M 68.5,339.5 C 73.8795,341.855 78.5462,345.188 82.5,349.5C 79.8619,353.111 78.0285,357.111 77,361.5C 75.3577,376.764 70.3577,390.764 62,403.5C 62.5929,399.359 63.4262,395.193 64.5,391C 64.501,386.839 63.1677,386.339 60.5,389.5C 58.0333,396.436 54.5333,402.769 50,408.5C 50.421,402.56 52.0877,396.894 55,391.5C 55.9164,386.546 54.9164,386.213 52,390.5C 49.1667,396.167 46.3333,401.833 43.5,407.5C 42.675,408.386 41.675,408.719 40.5,408.5C 42.3268,400.686 45.3268,393.353 49.5,386.5C 48.5,385.167 47.5,385.167 46.5,386.5C 42.7709,391.567 39.4376,396.901 36.5,402.5C 35.7522,397.49 36.9189,392.823 40,388.5C 42,385.833 44,383.167 46,380.5C 46.498,377.518 46.6646,374.518 46.5,371.5C 43.5617,372.628 40.5617,373.795 37.5,375C 35.8333,375.667 34.1667,375.667 32.5,375C 40.4016,367.043 49.4016,360.543 59.5,355.5C 62.4979,350.171 65.4979,344.838 68.5,339.5 Z"/></g>
  <g><path   stroke="none" fill-rule="nonzero" style="opacity:1" fill="#f9f9f9" d="M 362.5,340.5 C 364.017,340.511 365.184,341.177 366,342.5C 368.12,347.242 370.62,351.742 373.5,356C 383.379,361.104 392.379,367.438 400.5,375C 395.806,375.383 391.473,374.216 387.5,371.5C 386.345,374.446 386.179,377.446 387,380.5C 391.804,386.44 395.304,393.107 397.5,400.5C 397.167,400.833 396.833,401.167 396.5,401.5C 393.167,396.5 389.833,391.5 386.5,386.5C 385.675,385.614 384.675,385.281 383.5,385.5C 386.739,392.321 389.739,399.321 392.5,406.5C 392.167,407.5 391.5,408.167 390.5,408.5C 386.96,401.919 383.293,395.419 379.5,389C 378.517,388.409 377.85,388.743 377.5,390C 380.175,396.016 382.009,402.183 383,408.5C 382,407.5 381,406.5 380,405.5C 377.279,399.89 374.446,394.39 371.5,389C 369.483,386.689 368.149,387.023 367.5,390C 368.91,394.542 370.077,399.042 371,403.5C 361.908,389.894 356.575,374.894 355,358.5C 353.877,355.751 352.377,353.251 350.5,351C 354.101,346.889 358.101,343.389 362.5,340.5 Z"/></g>
  <g><path   stroke="none" fill-rule="nonzero" style="opacity:1" fill="#f9f9f9" d="M 792.5,355.5 C 793.873,355.343 795.207,355.51 796.5,356C 805.607,366.729 815.274,376.896 825.5,386.5C 823.926,387.631 822.259,387.798 820.5,387C 816.826,382.993 812.826,379.326 808.5,376C 807.5,375.333 806.5,375.333 805.5,376C 810.567,384.078 815.234,392.411 819.5,401C 819,401.5 818.5,402 818,402.5C 812.094,395.683 806.427,388.683 801,381.5C 801.218,384.179 801.885,386.845 803,389.5C 805.579,395.657 808.413,401.657 811.5,407.5C 811.012,410.851 809.845,411.184 808,408.5C 803.737,400.964 799.237,393.63 794.5,386.5C 794.167,386.833 793.833,387.167 793.5,387.5C 795.228,394.973 796.895,402.473 798.5,410C 797.512,414.407 796.012,414.574 794,410.5C 792.52,399.401 788.687,389.234 782.5,380C 780.433,379.464 778.599,379.964 777,381.5C 775.355,387.287 772.855,392.62 769.5,397.5C 768.692,397.192 768.025,396.692 767.5,396C 770.763,384.352 773.263,372.519 775,360.5C 781.211,359.927 787.044,358.26 792.5,355.5 Z"/></g>
  <g><path   stroke="none" fill-rule="nonzero" style="opacity:1" fill="#f9f9f9" d="M 482.5,356.5 C 488.658,359.918 495.325,361.251 502.5,360.5C 505.006,372.859 507.673,385.193 510.5,397.5C 509.483,400.028 508.316,400.028 507,397.5C 504.922,392.425 502.756,387.425 500.5,382.5C 499.131,380.876 497.464,380.376 495.5,381C 493.623,383.251 492.123,385.751 491,388.5C 488.25,397.754 484.917,406.754 481,415.5C 479.954,414.228 479.454,412.728 479.5,411C 481.478,404.086 483.145,397.086 484.5,390C 484.167,389.167 483.833,388.333 483.5,387.5C 478.496,394.838 473.996,402.504 470,410.5C 468.529,412.872 467.363,412.872 466.5,410.5C 469.872,401.551 473.539,392.718 477.5,384C 476.99,382.174 476.156,382.007 475,383.5C 470.766,391.227 465.6,398.227 459.5,404.5C 458.386,403.277 458.219,401.944 459,400.5C 463.503,394.165 467.503,387.498 471,380.5C 471.667,379.167 471.667,377.833 471,376.5C 465.607,379.226 460.774,382.726 456.5,387C 455.167,387.667 453.833,387.667 452.5,387C 463.372,377.629 473.372,367.462 482.5,356.5 Z"/></g>
  <g><path       stroke="none" fill-rule="nonzero" style="opacity:1" fill="#fafafa" d="M 573.5,365.5 C 574.376,365.369 575.043,365.702 575.5,366.5C 571.662,389.497 581.329,402.163 604.5,404.5C 601.016,416.145 597.516,427.812 594,439.5C 592.493,451.928 590.493,464.261 588,476.5C 583.049,487.423 575.549,496.09 565.5,502.5C 565.167,501.833 564.833,501.167 564.5,500.5C 570.198,481.279 571.031,461.945 567,442.5C 566.333,422.833 566.333,403.167 567,383.5C 567.539,380.471 568.206,377.471 569,374.5C 570.761,371.589 572.261,368.589 573.5,365.5 Z"/></g>
  <g><path       stroke="none" fill-rule="nonzero" style="opacity:1" fill="#fafafa" d="M 704.5,367.5 C 709.221,372.808 711.721,379.142 712,386.5C 712.141,414.357 711.308,442.19 709.5,470C 709.325,481.112 711.325,491.779 715.5,502C 701.453,495.581 692.786,484.581 689.5,469C 687.626,457.84 685.793,446.674 684,435.5C 680.824,425.306 677.657,415.139 674.5,405C 683.173,403.44 691.007,399.94 698,394.5C 702.939,386.222 705.106,377.222 704.5,367.5 Z"/></g>
  <g><path       stroke="none" fill-rule="nonzero" style="opacity:1" fill="#fafafa" d="M 630.5,402.5 C 631.5,402.5 632.5,402.5 633.5,402.5C 633.51,411.247 632.676,419.914 631,428.5C 627.129,442.113 622.463,455.446 617,468.5C 613.218,447.692 609.718,426.858 606.5,406C 612.5,405.667 618.5,405.333 624.5,405C 626.723,404.434 628.723,403.6 630.5,402.5 Z"/></g>
  <g><path       stroke="none" fill-rule="nonzero" style="opacity:1" fill="#fafafa" d="M 645.5,403.5 C 650.651,404.23 655.817,404.896 661,405.5C 664.835,405.11 668.668,404.777 672.5,404.5C 669.416,425.923 665.916,447.257 662,468.5C 657.136,455.576 652.47,442.576 648,429.5C 646.416,420.912 645.583,412.246 645.5,403.5 Z"/></g>
  <g><path       stroke="none" fill-rule="nonzero" style="opacity:1" fill="#fafafa" d="M 604.5,408.5 C 605.117,408.611 605.617,408.944 606,409.5C 608.366,431.132 611.533,452.632 615.5,474C 613.15,494.717 606.983,514.217 597,532.5C 593.462,523.758 589.129,515.424 584,507.5C 583.314,500.125 583.647,492.792 585,485.5C 588.307,479.916 590.641,473.916 592,467.5C 593,458.833 594,450.167 595,441.5C 598.678,430.633 601.845,419.633 604.5,408.5 Z"/></g>
  <g><path       stroke="none" fill-rule="nonzero" style="opacity:1" fill="#fafafa" d="M 673.5,409.5 C 680.806,428.065 685.306,447.399 687,467.5C 688.543,474.13 690.877,480.463 694,486.5C 695.353,493.792 695.686,501.125 695,508.5C 690.311,515.879 686.144,523.545 682.5,531.5C 672.489,514.139 666.155,495.472 663.5,475.5C 667.27,453.549 670.603,431.549 673.5,409.5 Z"/></g>
  <g><path   stroke="none" fill-rule="nonzero" style="opacity:1" fill="#fbfbfb" d="M 144.5,445.5 C 147.466,451.885 149.966,458.552 152,465.5C 154.372,470.412 156.872,475.245 159.5,480C 161.567,480.536 163.401,480.036 165,478.5C 166.706,474.965 168.04,471.298 169,467.5C 172.307,474.813 177.14,480.98 183.5,486C 186.309,487.741 189.309,488.908 192.5,489.5C 192.493,500.183 189.493,509.85 183.5,518.5C 182.264,517.754 180.93,517.421 179.5,517.5C 180.666,510.836 180.666,504.169 179.5,497.5C 179.91,504.063 179.077,510.729 177,517.5C 175.601,516.773 174.101,516.273 172.5,516C 169.795,512.758 167.461,509.258 165.5,505.5C 163.672,504.205 161.672,503.205 159.5,502.5C 160.959,500.417 162.292,498.25 163.5,496C 162.874,495.25 162.374,494.416 162,493.5C 159.974,500.532 155.974,506.198 150,510.5C 151.247,497.552 151.581,484.552 151,471.5C 148.515,462.892 146.348,454.226 144.5,445.5 Z"/></g>
  <g><path   stroke="none" fill-rule="nonzero" style="opacity:1" fill="#fbfbfb" d="M 269.5,508.5 C 267.732,510.508 266.066,512.674 264.5,515C 262.341,515.912 260.175,516.745 258,517.5C 256.883,516.051 256.216,514.384 256,512.5C 255.829,507.467 255.329,502.467 254.5,497.5C 253.205,503.779 253.538,509.946 255.5,516C 253.751,517.292 251.918,518.458 250,519.5C 246.478,511.271 243.978,502.771 242.5,494C 242.833,492.5 243.167,491 243.5,489.5C 245.911,488.639 247.911,487.306 249.5,485.5C 251.404,485.262 252.738,484.262 253.5,482.5C 256.167,481.833 257.833,480.167 258.5,477.5C 260.887,475.087 263.054,472.42 265,469.5C 266.327,472.131 267.66,474.798 269,477.5C 271.755,481.366 274.421,481.366 277,477.5C 278.009,475.975 278.509,474.308 278.5,472.5C 280.794,469.63 282.128,466.297 282.5,462.5C 284.908,458.013 287.075,453.347 289,448.5C 287.984,455.905 286.317,463.239 284,470.5C 282.106,482.91 282.606,495.243 285.5,507.5C 285.167,508.167 284.833,508.833 284.5,509.5C 278.977,505.808 275.143,500.808 273,494.5C 272.79,497.269 273.623,499.769 275.5,502C 271.939,502.728 269.939,504.894 269.5,508.5 Z"/></g>
  <g><path     stroke="none" fill-rule="nonzero" style="opacity:1" fill="#fcfcfc" d="M 696.5,490.5 C 699.479,492.812 702.146,495.479 704.5,498.5C 701.498,503.503 699.331,508.836 698,514.5C 697.065,512.091 696.565,509.591 696.5,507C 697.267,501.534 697.267,496.034 696.5,490.5 Z"/></g>
  <g><path     stroke="none" fill-rule="nonzero" style="opacity:1" fill="#fcfcfc" d="M 580.5,491.5 C 581.29,496.505 581.957,501.672 582.5,507C 582,509.5 581.5,512 581,514.5C 579.235,509.216 577.068,504.049 574.5,499C 576.32,496.348 578.32,493.848 580.5,491.5 Z"/></g>
  <g><path   stroke="none" fill-rule="nonzero" style="opacity:1" fill="#fdfdfd" d="M 157.5,504.5 C 158.873,504.343 160.207,504.51 161.5,505C 164.257,509.179 167.257,513.179 170.5,517C 175.273,518.396 179.94,519.896 184.5,521.5C 175.937,537.355 169.437,554.021 165,571.5C 162.606,591.429 160.94,611.429 160,631.5C 157.961,620.677 155.294,610.01 152,599.5C 150.566,592.898 149.566,586.232 149,579.5C 148.333,557.833 148.333,536.167 149,514.5C 151.969,511.27 154.802,507.936 157.5,504.5 Z"/></g>
  <g><path   stroke="none" fill-rule="nonzero" style="opacity:1" fill="#fdfdfd" d="M 269.5,508.5 C 270.712,507.77 271.712,506.77 272.5,505.5C 273.768,504.572 275.101,504.405 276.5,505C 280.065,508.227 283.232,511.727 286,515.5C 286.667,534.5 286.667,553.5 286,572.5C 283.62,592.402 279.953,612.068 275,631.5C 273.715,617.638 272.715,603.638 272,589.5C 268.955,565.531 261.788,542.864 250.5,521.5C 251.665,520.416 252.998,519.583 254.5,519C 262.705,519.899 267.705,516.399 269.5,508.5 Z"/></g>
  <g><path   stroke="none" fill-rule="nonzero" style="opacity:1" fill="#fefefe" d="M 705.5,499.5 C 709.032,500.854 712.198,502.854 715,505.5C 715.395,512.478 716.062,519.478 717,526.5C 721.284,536.732 725.284,547.065 729,557.5C 730.257,569.498 731.424,581.498 732.5,593.5C 727.713,593.107 723.713,591.107 720.5,587.5C 717.222,583.279 714.722,578.612 713,573.5C 710.036,554.976 705.203,536.976 698.5,519.5C 700.057,512.492 702.391,505.825 705.5,499.5 Z"/></g>
  <g><path   stroke="none" fill-rule="nonzero" style="opacity:1" fill="#fefefe" d="M 570.5,500.5 C 571.675,500.281 572.675,500.614 573.5,501.5C 576.324,507.472 578.658,513.639 580.5,520C 577.94,525.679 575.773,531.512 574,537.5C 570.792,551.209 567.459,564.876 564,578.5C 562.46,582.419 560.293,585.919 557.5,589C 554.327,591.087 550.994,592.921 547.5,594.5C 546.674,582.094 547.507,569.761 550,557.5C 553.162,546.843 557.162,536.51 562,526.5C 562.694,523.532 563.194,520.532 563.5,517.5C 562.714,513.844 562.547,510.177 563,506.5C 565.478,504.361 567.978,502.361 570.5,500.5 Z"/></g>
  <g><path   stroke="none" fill-rule="nonzero" style="opacity:1" fill="#fefefe" d="M 583.5,511.5 C 588.776,518.38 592.776,526.047 595.5,534.5C 592.24,550.981 590.74,567.648 591,584.5C 589.955,589.986 587.955,594.986 585,599.5C 575.327,595.517 568.827,588.517 565.5,578.5C 570.729,555.913 576.729,533.579 583.5,511.5 Z"/></g>
  <g><path   stroke="none" fill-rule="nonzero" style="opacity:1" fill="#fefefe" d="M 693.5,512.5 C 697.625,521.347 701.125,530.681 704,540.5C 706.578,553.393 709.412,566.226 712.5,579C 709.224,587.948 703.391,594.781 695,599.5C 691.14,595.274 688.807,590.274 688,584.5C 687.623,580.981 687.123,577.481 686.5,574C 688.429,560.403 687.429,547.069 683.5,534C 686.973,526.887 690.307,519.72 693.5,512.5 Z"/></g>
  <g><path   stroke="none" fill-rule="nonzero" style="opacity:1" fill="#fefefe" d="M 183.5,526.5 C 184.693,526.97 185.36,527.97 185.5,529.5C 184.485,559.894 177.651,588.894 165,616.5C 164.531,622.19 163.864,627.857 163,633.5C 162.389,612.381 163.723,591.381 167,570.5C 168.39,563.329 170.39,556.329 173,549.5C 177.06,542.05 180.56,534.383 183.5,526.5 Z"/></g>
  <g><path   stroke="none" fill-rule="nonzero" style="opacity:1" fill="#fefefe" d="M 145.5,527.5 C 146.163,546.018 146.996,564.685 148,583.5C 151.008,599.198 154.174,614.864 157.5,630.5C 156.376,635.631 153.376,639.298 148.5,641.5C 146.098,625.757 143.265,610.09 140,594.5C 138.522,583.873 138.188,573.206 139,562.5C 141.233,550.835 143.4,539.168 145.5,527.5 Z"/></g>
  <g><path   stroke="none" fill-rule="nonzero" style="opacity:1" fill="#fefefe" d="M 250.5,527.5 C 261.615,547.349 268.448,568.682 271,591.5C 271.806,605.166 272.139,618.832 272,632.5C 271.432,626.426 270.432,620.426 269,614.5C 256.031,586.956 249.864,557.956 250.5,527.5 Z"/></g>
  <g><path   stroke="none" fill-rule="nonzero" style="opacity:1" fill="#fefefe" d="M 288.5,531.5 C 289.222,531.918 289.722,532.584 290,533.5C 295.093,553.548 296.759,573.882 295,594.5C 291.366,610.034 288.532,625.701 286.5,641.5C 282.276,640.478 278.609,638.311 275.5,635C 280.517,615.759 284.35,596.259 287,576.5C 288.055,561.517 288.555,546.517 288.5,531.5 Z"/></g>
  <g><path stroke="none" fill-rule="nonzero" style="opacity:1" fill="#e5e5e5" d="M 563.5,581.5 C 564.496,581.414 565.329,581.748 566,582.5C 569.583,591.537 575.75,598.037 584.5,602C 578.231,612.601 572.398,623.435 567,634.5C 563.451,644.911 561.451,655.578 561,666.5C 562.493,656.793 565.826,656.459 571,665.5C 572.733,671.584 571.733,677.251 568,682.5C 567.421,678.614 566.588,678.614 565.5,682.5C 567.839,692.69 563.672,698.356 553,699.5C 544.898,699.565 541.064,695.565 541.5,687.5C 542.417,659.314 543.584,630.98 545,602.5C 545.273,600.899 545.773,599.399 546.5,598C 554.678,594.987 560.345,589.487 563.5,581.5 Z"/></g>
  <g><path stroke="none" fill-rule="nonzero" style="opacity:1" fill="#e5e5e5" d="M 713.5,581.5 C 716.302,584.476 718.969,587.642 721.5,591C 724.804,593.212 728.304,595.045 732,596.5C 736.224,629.036 737.557,661.703 736,694.5C 734.992,696.259 733.492,697.426 731.5,698C 722.564,700.443 716.064,697.61 712,689.5C 711.383,686.965 711.883,684.632 713.5,682.5C 712.5,679.833 711.5,679.833 710.5,682.5C 703.637,672.644 705.137,664.644 715,658.5C 716.216,660.962 716.882,663.629 717,666.5C 717.333,666.167 717.667,665.833 718,665.5C 715.131,642.577 707.297,621.41 694.5,602C 703.417,597.582 709.75,590.749 713.5,581.5 Z"/></g>
  <g><path stroke="none" fill-rule="nonzero" style="opacity:1" fill="#e5e5e5" d="M 159.5,633.5 C 160.721,634.028 161.887,634.695 163,635.5C 164.563,644.484 166.063,653.484 167.5,662.5C 166.858,666.79 165.358,670.79 163,674.5C 162.685,680.743 161.352,686.743 159,692.5C 156.434,695.974 152.934,697.641 148.5,697.5C 141.019,696.704 133.686,695.204 126.5,693C 125.424,691.274 125.257,689.441 126,687.5C 130.414,682.344 134.081,676.677 137,670.5C 138.812,661.732 141.812,653.398 146,645.5C 146.333,646.167 146.667,646.833 147,647.5C 151.674,643.324 155.841,638.657 159.5,633.5 Z"/></g>
  <g><path stroke="none" fill-rule="nonzero" style="opacity:1" fill="#e5e5e5" d="M 271.5,635.5 C 275.558,640.028 280.558,642.694 286.5,643.5C 286.008,647.29 286.841,647.956 289,645.5C 292.399,654.363 295.399,663.363 298,672.5C 300.843,677.519 304.176,682.186 308,686.5C 308.497,688.81 308.663,691.143 308.5,693.5C 300.931,695.091 293.265,696.091 285.5,696.5C 282.42,696.68 279.587,696.014 277,694.5C 273.319,688.706 271.653,682.373 272,675.5C 269.488,671.304 267.654,666.804 266.5,662C 269.132,653.341 270.798,644.508 271.5,635.5 Z"/></g>
  </g>
</svg>